<svg width="36" height="36" viewBox="0 0 36 36" fill="none" xmlns="http://www.w3.org/2000/svg"><path fill-rule="evenodd" clip-rule="evenodd" d="M10.8 9c.99 0 1.8.81 1.8 1.8s-.81 1.8-1.8 1.8S9 11.79 9 10.8 9.81 9 10.8 9z" fill="#fff"/><path opacity=".1" fill-rule="evenodd" clip-rule="evenodd" d="M10.8 16c.99 0 1.8.81 1.8 1.8s-.81 1.8-1.8 1.8S9 18.79 9 17.8s.81-1.8 1.8-1.8z" fill="#fff"/><path fill-rule="evenodd" clip-rule="evenodd" d="M10.8 23.4c.99 0 1.8.81 1.8 1.8s-.81 1.8-1.8 1.8S9 26.19 9 25.2s.81-1.8 1.8-1.8z" fill="#fff"/><path opacity=".1" fill-rule="evenodd" clip-rule="evenodd" d="M18 9c.99 0 1.8.81 1.8 1.8s-.81 1.8-1.8 1.8-1.8-.81-1.8-1.8S17.01 9 18 9z" fill="#fff"/><path fill-rule="evenodd" clip-rule="evenodd" d="M18 16.2c.99 0 1.8.81 1.8 1.8s-.81 1.8-1.8 1.8-1.8-.81-1.8-1.8.81-1.8 1.8-1.8z" fill="#fff"/><path opacity=".1" fill-rule="evenodd" clip-rule="evenodd" d="M18 23.4c.99 0 1.8.81 1.8 1.8S18.99 27 18 27s-1.8-.81-1.8-1.8.81-1.8 1.8-1.8z" fill="#fff"/><path fill-rule="evenodd" clip-rule="evenodd" d="M25.2 9c.99 0 1.8.81 1.8 1.8s-.81 1.8-1.8 1.8-1.8-.81-1.8-1.8.81-1.8 1.8-1.8z" fill="#fff"/><path opacity=".1" fill-rule="evenodd" clip-rule="evenodd" d="M25.2 16.2c.99 0 1.8.81 1.8 1.8s-.81 1.8-1.8 1.8-1.8-.81-1.8-1.8.81-1.8 1.8-1.8z" fill="#fff"/><path fill-rule="evenodd" clip-rule="evenodd" d="M25.2 23.4c.99 0 1.8.81 1.8 1.8s-.81 1.8-1.8 1.8-1.8-.81-1.8-1.8.81-1.8 1.8-1.8z" fill="#fff"/><path fill="#fff" d="M25.15 8.178l2.545 2.546-16.97 16.97-2.546-2.545z"/><path fill="#fff" d="M27.695 25.148l-2.546 2.546-16.97-16.97 2.545-2.546z"/></svg>