<svg width="20" height="20" viewBox="0 0 20 20" fill="none" xmlns="http://www.w3.org/2000/svg"><path fill-rule="evenodd" clip-rule="evenodd" d="M10 .081c-.614 0-1.111.484-1.111 1.081v12.043l-4.517-4.13a1.133 1.133 0 0 0-1.57.048 1.06 1.06 0 0 0 .048 1.528l6.389 5.835.047.041c.2.165.452.256.714.257a1.13 1.13 0 0 0 .703-.254l.047-.04 6.389-5.836a1.06 1.06 0 0 0 .048-1.528 1.133 1.133 0 0 0-1.57-.048l-4.506 4.127V1.162c0-.597-.497-1.08-1.111-1.08zm8.82 17.676H1.18c-.613 0-1.11.484-1.11 1.08 0 .598.497 1.082 1.11 1.082h17.64c.613 0 1.11-.484 1.11-1.081s-.497-1.081-1.11-1.081z" fill="#fff"/></svg>