<svg width="18" height="18" viewBox="0 0 18 18" fill="none" xmlns="http://www.w3.org/2000/svg"><path fill-rule="evenodd" clip-rule="evenodd" d="M2.429.429a1.72 1.72 0 0 1 1.714 1.714 1.72 1.72 0 0 1-1.714 1.714A1.72 1.72 0 0 1 .714 2.143 1.72 1.72 0 0 1 2.43.429zm0 6.666A1.72 1.72 0 0 1 4.143 8.81a1.72 1.72 0 0 1-1.714 1.714A1.72 1.72 0 0 1 .714 8.81 1.72 1.72 0 0 1 2.43 7.095zm0 7.048a1.72 1.72 0 0 1 1.714 1.714 1.72 1.72 0 0 1-1.714 1.715 1.72 1.72 0 0 1-1.715-1.715 1.72 1.72 0 0 1 1.715-1.714zM9.286.429A1.72 1.72 0 0 1 11 2.143a1.72 1.72 0 0 1-1.714 1.714A1.72 1.72 0 0 1 7.57 2.143 1.72 1.72 0 0 1 9.286.429zm0 6.857A1.72 1.72 0 0 1 11 9a1.72 1.72 0 0 1-1.714 1.714A1.72 1.72 0 0 1 7.57 9a1.72 1.72 0 0 1 1.715-1.714zm0 6.857A1.72 1.72 0 0 1 11 15.857a1.72 1.72 0 0 1-1.714 1.715 1.72 1.72 0 0 1-1.715-1.715 1.72 1.72 0 0 1 1.715-1.714zM16.143.429a1.72 1.72 0 0 1 1.714 1.714 1.72 1.72 0 0 1-1.714 1.714 1.72 1.72 0 0 1-1.714-1.714A1.72 1.72 0 0 1 16.143.429zm0 6.857A1.72 1.72 0 0 1 17.857 9a1.72 1.72 0 0 1-1.714 1.714A1.72 1.72 0 0 1 14.429 9a1.72 1.72 0 0 1 1.714-1.714zm0 6.857a1.72 1.72 0 0 1 1.714 1.714 1.72 1.72 0 0 1-1.714 1.715 1.72 1.72 0 0 1-1.714-1.715 1.72 1.72 0 0 1 1.714-1.714z" fill="#fff"/></svg>