<svg width="18" height="18" viewBox="0 0 18 18" fill="none" xmlns="http://www.w3.org/2000/svg">
<path fill-rule="evenodd" clip-rule="evenodd" d="M2.42856 0.428467C3.37142 0.428467 4.14285 1.1999 4.14285 2.14275C4.14285 3.08561 3.37142 3.85704 2.42856 3.85704C1.48571 3.85704 0.714279 3.08561 0.714279 2.14275C0.714279 1.1999 1.48571 0.428467 2.42856 0.428467Z" fill="#171A21"/>
<path fill-rule="evenodd" clip-rule="evenodd" d="M2.42856 7.09521C3.37142 7.09521 4.14285 7.86664 4.14285 8.8095C4.14285 9.75236 3.37142 10.5238 2.42856 10.5238C1.48571 10.5238 0.714279 9.75236 0.714279 8.8095C0.714279 7.86664 1.48571 7.09521 2.42856 7.09521Z" fill="#171A21"/>
<path fill-rule="evenodd" clip-rule="evenodd" d="M2.42856 14.1428C3.37142 14.1428 4.14285 14.9143 4.14285 15.8571C4.14285 16.8 3.37142 17.5714 2.42856 17.5714C1.48571 17.5714 0.714279 16.8 0.714279 15.8571C0.714279 14.9143 1.48571 14.1428 2.42856 14.1428Z" fill="#171A21"/>
<path fill-rule="evenodd" clip-rule="evenodd" d="M9.28571 0.428467C10.2286 0.428467 11 1.1999 11 2.14275C11 3.08561 10.2286 3.85704 9.28571 3.85704C8.34285 3.85704 7.57143 3.08561 7.57143 2.14275C7.57143 1.1999 8.34285 0.428467 9.28571 0.428467Z" fill="#171A21"/>
<path fill-rule="evenodd" clip-rule="evenodd" d="M9.28571 7.28564C10.2286 7.28564 11 8.05707 11 8.99993C11 9.94279 10.2286 10.7142 9.28571 10.7142C8.34285 10.7142 7.57143 9.94279 7.57143 8.99993C7.57143 8.05707 8.34285 7.28564 9.28571 7.28564Z" fill="#171A21"/>
<path fill-rule="evenodd" clip-rule="evenodd" d="M9.28571 14.1428C10.2286 14.1428 11 14.9143 11 15.8571C11 16.8 10.2286 17.5714 9.28571 17.5714C8.34285 17.5714 7.57143 16.8 7.57143 15.8571C7.57143 14.9143 8.34285 14.1428 9.28571 14.1428Z" fill="#171A21"/>
<path fill-rule="evenodd" clip-rule="evenodd" d="M16.1429 0.428467C17.0857 0.428467 17.8571 1.1999 17.8571 2.14275C17.8571 3.08561 17.0857 3.85704 16.1429 3.85704C15.2 3.85704 14.4286 3.08561 14.4286 2.14275C14.4286 1.1999 15.2 0.428467 16.1429 0.428467Z" fill="#171A21"/>
<path fill-rule="evenodd" clip-rule="evenodd" d="M16.1429 7.28564C17.0857 7.28564 17.8571 8.05707 17.8571 8.99993C17.8571 9.94279 17.0857 10.7142 16.1429 10.7142C15.2 10.7142 14.4286 9.94279 14.4286 8.99993C14.4286 8.05707 15.2 7.28564 16.1429 7.28564Z" fill="#171A21"/>
<path fill-rule="evenodd" clip-rule="evenodd" d="M16.1429 14.1428C17.0857 14.1428 17.8571 14.9143 17.8571 15.8571C17.8571 16.8 17.0857 17.5714 16.1429 17.5714C15.2 17.5714 14.4286 16.8 14.4286 15.8571C14.4286 14.9143 15.2 14.1428 16.1429 14.1428Z" fill="#171A21"/>
</svg>
